<svg width="29" height="28" viewBox="5 5 18 18" fill="none" xmlns="http://www.w3.org/2000/svg">
  <path
    d="M15.0029 19H13.7451V14.3379H8.61816V19H7.36035V9.00586H8.61816V13.2305H13.7451V9.00586H15.0029V19ZM22.2832 19H16.9395V18.0859L18.9902 15.8535C19.2832 15.5371 19.5449 15.248 19.7754 14.9863C20.0059 14.7246 20.2012 14.4688 20.3613 14.2188C20.5254 13.9688 20.6504 13.7188 20.7363 13.4688C20.8223 13.2148 20.8652 12.9395 20.8652 12.6426C20.8652 12.4121 20.832 12.209 20.7656 12.0332C20.6992 11.8574 20.6035 11.709 20.4785 11.5879C20.3574 11.4629 20.2129 11.3691 20.0449 11.3066C19.877 11.2441 19.6895 11.2129 19.4824 11.2129C19.1113 11.2129 18.7754 11.2891 18.4746 11.4414C18.1777 11.5898 17.8945 11.7812 17.625 12.0156L17.0273 11.3184C17.1836 11.1777 17.3516 11.0469 17.5312 10.9258C17.7109 10.8008 17.9043 10.6934 18.1113 10.6035C18.3184 10.5137 18.5371 10.4434 18.7676 10.3926C18.998 10.3379 19.2402 10.3105 19.4941 10.3105C19.8691 10.3105 20.207 10.3633 20.5078 10.4688C20.8125 10.5742 21.0703 10.7266 21.2812 10.9258C21.4922 11.1211 21.6543 11.3613 21.7676 11.6465C21.8848 11.9277 21.9434 12.2461 21.9434 12.6016C21.9434 12.9336 21.8906 13.25 21.7852 13.5508C21.6836 13.8516 21.541 14.1484 21.3574 14.4414C21.1777 14.7305 20.9609 15.0215 20.707 15.3145C20.457 15.6074 20.1855 15.9121 19.8926 16.2285L18.2461 17.9805V18.0273H22.2832V19Z" />
</svg>