<svg width="29" height="28" viewBox="5 5 18 18" fill="none" xmlns="http://www.w3.org/2000/svg">
  <path
    d="M15.0029 19H13.7451V14.3379H8.61816V19H7.36035V9.00586H8.61816V13.2305H13.7451V9.00586H15.0029V19ZM22.7461 17.0781H21.498V19H20.4668V17.0781H16.5117V16.1465L20.3965 10.3867H21.498V16.1055H22.7461V17.0781ZM20.4668 16.1055V14.0195C20.4668 13.8008 20.4688 13.5723 20.4727 13.334C20.4805 13.0918 20.4883 12.8574 20.4961 12.6309C20.5039 12.4004 20.5117 12.1855 20.5195 11.9863C20.5312 11.7871 20.5391 11.6211 20.543 11.4883H20.4902C20.4629 11.5664 20.4277 11.6543 20.3848 11.752C20.3457 11.8457 20.3008 11.9414 20.25 12.0391C20.2031 12.1328 20.1543 12.2246 20.1035 12.3145C20.0527 12.4043 20.0059 12.4805 19.9629 12.543L17.5547 16.1055H20.4668Z" />
</svg>