<svg width="21" height="14" viewBox="0 0 21 14" fill="none" xmlns="http://www.w3.org/2000/svg">
<path d="M9.404 0.309999H11.24V13H9.404V7.312H2.312V13H0.476V0.309999H2.312V5.8H9.404V0.309999ZM18.7709 7.57C19.3909 7.75 19.8609 8.06 20.1809 8.5C20.5109 8.93 20.6759 9.475 20.6759 10.135C20.6759 11.055 20.3509 11.78 19.7009 12.31C19.0509 12.84 18.1709 13.105 17.0609 13.105C16.3609 13.105 15.6909 12.995 15.0509 12.775C14.4109 12.545 13.8759 12.23 13.4459 11.83L14.0009 10.69C14.9509 11.46 15.9559 11.845 17.0159 11.845C17.7259 11.845 18.2609 11.695 18.6209 11.395C18.9909 11.085 19.1759 10.63 19.1759 10.03C19.1759 9.44 18.9859 9 18.6059 8.71C18.2359 8.41 17.6709 8.26 16.9109 8.26H15.6059V7.015H16.6709C17.4009 7.015 17.9559 6.865 18.3359 6.565C18.7259 6.255 18.9209 5.805 18.9209 5.215C18.9209 4.685 18.7609 4.28 18.4409 4C18.1209 3.71 17.6709 3.565 17.0909 3.565C16.0809 3.565 15.1009 3.95 14.1509 4.72L13.6109 3.58C14.0309 3.18 14.5559 2.87 15.1859 2.65C15.8259 2.42 16.4859 2.305 17.1659 2.305C18.1559 2.305 18.9459 2.55 19.5359 3.04C20.1259 3.53 20.4209 4.195 20.4209 5.035C20.4209 5.625 20.2759 6.145 19.9859 6.595C19.6959 7.045 19.2909 7.37 18.7709 7.57Z" fill="#636363"/>
</svg>
