<svg width="21" height="13" viewBox="0 0 21 13" fill="none" xmlns="http://www.w3.org/2000/svg">
<path d="M9.404 0.309999H11.24V13H9.404V7.312H2.312V13H0.476V0.309999H2.312V5.8H9.404V0.309999ZM20.8409 11.725V13H13.9109V11.845L17.5559 7.855C18.0259 7.345 18.3659 6.88 18.5759 6.46C18.7859 6.04 18.8909 5.625 18.8909 5.215C18.8909 4.675 18.7359 4.265 18.4259 3.985C18.1159 3.705 17.6709 3.565 17.0909 3.565C16.1009 3.565 15.1209 3.95 14.1509 4.72L13.6109 3.58C14.0309 3.19 14.5609 2.88 15.2009 2.65C15.8409 2.42 16.4859 2.305 17.1359 2.305C18.1459 2.305 18.9459 2.56 19.5359 3.07C20.1259 3.57 20.4209 4.25 20.4209 5.11C20.4209 5.72 20.2859 6.3 20.0159 6.85C19.7559 7.4 19.3159 8.015 18.6959 8.695L15.8609 11.725H20.8409Z" fill="#636363"/>
</svg>
