<svg width="29" height="28" viewBox="5 5 18 18" fill="none" xmlns="http://www.w3.org/2000/svg">
  <path
    d="M15.0029 19H13.7451V14.3379H8.61816V19H7.36035V9.00586H8.61816V13.2305H13.7451V9.00586H15.0029V19ZM22.0078 12.4375C22.0078 12.7227 21.9629 12.9824 21.873 13.2168C21.7832 13.4512 21.6562 13.6543 21.4922 13.8262C21.332 13.998 21.1387 14.1406 20.9121 14.2539C20.6855 14.3633 20.4336 14.4414 20.1562 14.4883V14.5234C20.8477 14.6094 21.373 14.8301 21.7324 15.1855C22.0918 15.5371 22.2715 15.9961 22.2715 16.5625C22.2715 16.9375 22.207 17.2812 22.0781 17.5938C21.9531 17.9062 21.7617 18.1758 21.5039 18.4023C21.2461 18.6289 20.9199 18.8047 20.5254 18.9297C20.1309 19.0547 19.6641 19.1172 19.125 19.1172C18.6992 19.1172 18.2969 19.084 17.918 19.0176C17.543 18.9512 17.1895 18.8301 16.8574 18.6543V17.6582C17.1973 17.8379 17.5645 17.9766 17.959 18.0742C18.3574 18.1719 18.7383 18.2207 19.1016 18.2207C19.4609 18.2207 19.7715 18.1816 20.0332 18.1035C20.2949 18.0254 20.5098 17.9141 20.6777 17.7695C20.8496 17.625 20.9746 17.4473 21.0527 17.2363C21.1348 17.0254 21.1758 16.7891 21.1758 16.5273C21.1758 16.2617 21.123 16.0352 21.0176 15.8477C20.916 15.6562 20.7695 15.5 20.5781 15.3789C20.3867 15.2539 20.1523 15.1621 19.875 15.1035C19.6016 15.0449 19.291 15.0156 18.9434 15.0156H18.1641V14.1309H18.9434C19.2598 14.1309 19.541 14.0918 19.7871 14.0137C20.0332 13.9355 20.2383 13.8242 20.4023 13.6797C20.5703 13.5352 20.6973 13.3633 20.7832 13.1641C20.8691 12.9648 20.9121 12.7461 20.9121 12.5078C20.9121 12.3047 20.877 12.123 20.8066 11.9629C20.7363 11.8027 20.6367 11.668 20.5078 11.5586C20.3789 11.4453 20.2246 11.3594 20.0449 11.3008C19.8652 11.2422 19.666 11.2129 19.4473 11.2129C19.0293 11.2129 18.6602 11.2793 18.3398 11.4121C18.0234 11.541 17.7207 11.7109 17.4316 11.9219L16.8926 11.1895C17.041 11.0684 17.2051 10.9551 17.3848 10.8496C17.5684 10.7441 17.7676 10.6523 17.9824 10.5742C18.1973 10.4922 18.4258 10.4277 18.668 10.3809C18.9141 10.334 19.1738 10.3105 19.4473 10.3105C19.8691 10.3105 20.2383 10.3633 20.5547 10.4688C20.875 10.5742 21.1426 10.7227 21.3574 10.9141C21.5723 11.1016 21.7344 11.3262 21.8438 11.5879C21.9531 11.8457 22.0078 12.1289 22.0078 12.4375Z" />
</svg>