<svg xmlns="http://www.w3.org/2000/svg" viewBox="0 0 162.17 117.44"><defs><style>.cls-1{fill:#636363;}</style></defs><g id="Layer_2" data-name="Layer 2"><g id="Layer_1-2" data-name="Layer 1"><path class="cls-1" d="M158.17,117.44a4,4,0,0,1-4-4V4a4,4,0,0,1,8,0V113.44A4,4,0,0,1,158.17,117.44Z"/><path class="cls-1" d="M4,117.44a4,4,0,0,1-4-4V4A4,4,0,0,1,8,4V113.44A4,4,0,0,1,4,117.44Z"/><path class="cls-1" d="M140.23,61.05H21a4,4,0,0,1,0-8H140.23a4,4,0,0,1,0,8Z"/><path class="cls-1" d="M40.58,86a4,4,0,0,1-3.06-1.43l-21-25a4,4,0,0,1,0-5.17l21-24.54a4,4,0,1,1,6.08,5.2l-18.79,22L43.64,79.43A4,4,0,0,1,40.58,86Z"/><path class="cls-1" d="M119.62,86a4,4,0,0,1-3.06-6.58l18.82-22.36-18.8-22a4,4,0,0,1,6.08-5.2l21,24.54a4,4,0,0,1,0,5.17l-21,25A4,4,0,0,1,119.62,86Z"/></g></g></svg>