<svg width="17" height="17" viewBox="0 0 17 17" fill="none" xmlns="http://www.w3.org/2000/svg">
<g clip-path="url(#clip0)">
<path d="M16.2279 1.44919L15.5502 0.771451C14.5147 -0.263986 12.8204 -0.263986 11.7661 0.771451L1.54353 11.0129C1.46823 11.0882 1.41175 11.2011 1.3741 11.3141L0.0186159 16.1524C-0.0378625 16.3783 0.0186159 16.6419 0.188051 16.8113C0.319834 16.9431 0.489269 16.9996 0.658705 16.9996C0.715183 16.9996 0.771661 16.9996 0.82814 16.9808L5.70411 15.6253C5.81707 15.5876 5.9112 15.5311 6.00533 15.4558L16.2279 5.23324C17.2634 4.19781 17.2634 2.50346 16.2279 1.44919ZM4.29215 14.6463L1.61884 15.3805L2.35306 12.7072L4.29215 14.6463ZM13.7993 5.7792L5.5535 14.0062L2.99315 11.4459L11.239 3.20002L13.7993 5.7792ZM15.2866 4.29194L14.7407 4.8379L12.1615 2.25872L12.7074 1.71276C12.9522 1.46802 13.291 1.31741 13.6487 1.31741C14.0064 1.31741 14.3453 1.44919 14.59 1.71276L15.2678 2.3905C15.7949 2.91763 15.7949 3.76481 15.2866 4.29194Z" fill="#636363"/>
</g>
<defs>
<clipPath id="clip0">
<rect width="17" height="17" fill="white"/>
</clipPath>
</defs>
</svg>
