<svg width="19" height="21" viewBox="0 0 19 21" fill="none" xmlns="http://www.w3.org/2000/svg">
<!-- <g clip-path="url(#clip0)"> -->
<path d="M15.8145 20.2783H2.84508C1.80753 20.2783 0.958618 19.4293 0.958618 18.3918V5.56385L5.48613 0.721924H15.8145C16.8521 0.721924 17.701 1.57083 17.701 2.60839V18.3918C17.701 19.4293 16.8521 20.2783 15.8145 20.2783Z" stroke="#636363" stroke-width="1.15" stroke-miterlimit="10" stroke-linecap="round" stroke-linejoin="round"/>
<path d="M6.20931 9.10083L4.08704 11.5847" stroke="#636363" stroke-width="1.15" stroke-miterlimit="10" stroke-linecap="round" stroke-linejoin="round"/>
<path d="M4.08704 11.5847L6.20931 9.10083" stroke="#636363" stroke-width="1.15" stroke-miterlimit="10" stroke-linecap="round" stroke-linejoin="round"/>
<path d="M4.08704 11.585L6.20931 14.0531" stroke="#636363" stroke-width="1.15" stroke-miterlimit="10" stroke-linecap="round" stroke-linejoin="round"/>
<path d="M12.4503 9.10083L14.5726 11.5847" stroke="#636363" stroke-width="1.15" stroke-miterlimit="10" stroke-linecap="round" stroke-linejoin="round"/>
<path d="M14.5726 11.5847L12.4503 9.10083" stroke="#636363" stroke-width="1.15" stroke-miterlimit="10" stroke-linecap="round" stroke-linejoin="round"/>
<path d="M14.5726 11.585L12.4503 14.0531" stroke="#636363" stroke-width="1.15" stroke-miterlimit="10" stroke-linecap="round" stroke-linejoin="round"/>
<path d="M10.3752 8.26758L8.26868 14.9016" stroke="#636363" stroke-width="1.15" stroke-miterlimit="10" stroke-linecap="round" stroke-linejoin="round"/>
<path d="M0.958618 5.56385H5.54901V0.721924" stroke="#636363" stroke-width="1.15" stroke-miterlimit="10" stroke-linecap="round" stroke-linejoin="round"/>
<!-- </g>
<defs>
<clipPath id="clip0">
<rect width="18" height="20.814" fill="white" transform="translate(0.329834 0.0930176)"/>
</clipPath>
</defs> -->
</svg>
