<svg width="28" height="28" viewBox="5 5 18 18" fill="none" xmlns="http://www.w3.org/2000/svg">
<path d="M22.2813 8.22503C21.9329 7.87543 21.5189 7.59804 21.0631 7.40877C20.6073 7.2195 20.1186 7.12207 19.625 7.12207C19.1315 7.12207 18.6428 7.2195 18.187 7.40877C17.7312 7.59804 17.3172 7.87543 16.9688 8.22503L17.8563 9.11253C18.089 8.87984 18.3652 8.69526 18.6692 8.56934C18.9733 8.44341 19.2991 8.37859 19.6282 8.37859C19.9572 8.37859 20.2831 8.44341 20.5871 8.56934C20.8911 8.69526 21.1674 8.87984 21.4 9.11253C21.6327 9.34521 21.8173 9.62145 21.9432 9.92547C22.0692 10.2295 22.134 10.5553 22.134 10.8844C22.134 11.2135 22.0692 11.5393 21.9432 11.8433C21.8173 12.1474 21.6327 12.4236 21.4 12.6563L16.4 17.6563C15.9309 18.1262 15.2944 18.3905 14.6304 18.3911C13.9664 18.3917 13.3293 18.1285 12.8594 17.6594C12.3895 17.1903 12.1252 16.5537 12.1246 15.8897C12.124 15.2257 12.3872 14.5887 12.8563 14.1188L13.7375 13.2313L12.8563 12.3438L11.9688 13.2313C11.6192 13.5797 11.3418 13.9936 11.1525 14.4495C10.9633 14.9053 10.8658 15.394 10.8658 15.8875C10.8658 16.3811 10.9633 16.8698 11.1525 17.3256C11.3418 17.7814 11.6192 18.1954 11.9688 18.5438C12.676 19.2419 13.6313 19.6308 14.625 19.625C15.1205 19.6271 15.6114 19.5309 16.0695 19.3421C16.5276 19.1533 16.9437 18.8756 17.2938 18.525L22.2938 13.525C22.9944 12.8202 23.3866 11.8662 23.3842 10.8724C23.3819 9.87869 22.9852 8.9265 22.2813 8.22503Z"/>
<path d="M6.61879 19.5125C6.38541 19.2802 6.20022 19.0041 6.07386 18.7C5.94749 18.396 5.88244 18.0699 5.88244 17.7407C5.88244 17.4114 5.94749 17.0853 6.07386 16.7813C6.20022 16.4772 6.38541 16.2011 6.61879 15.9688L11.6188 10.9688C11.8511 10.7354 12.1272 10.5502 12.4313 10.4238C12.7353 10.2975 13.0614 10.2324 13.3907 10.2324C13.7199 10.2324 14.046 10.2975 14.3501 10.4238C14.6541 10.5502 14.9302 10.7354 15.1625 10.9688C15.3944 11.2029 15.577 11.4812 15.6994 11.7872C15.8218 12.0931 15.8815 12.4206 15.875 12.75C15.8769 13.0805 15.8133 13.4081 15.6878 13.7139C15.5623 14.0196 15.3774 14.2974 15.1438 14.5313C14.9102 14.7651 13.8188 15.875 13.8188 15.875L14.7063 16.7625L16.0313 15.4375C16.5115 14.9573 16.8484 14.3606 17.0146 13.7139C17.0925 13.4107 17.1328 13.0965 17.1328 12.7782C17.1328 11.7807 16.7366 10.8241 16.0313 10.1188C15.326 9.41347 14.3694 9.01723 13.3719 9.01723C12.3745 9.01723 11.4179 9.41347 10.7125 10.1188L5.71254 15.1188C5.362 15.4673 5.08382 15.8816 4.89399 16.338C4.70417 16.7944 4.60645 17.2839 4.60645 17.7782C4.60645 18.2725 4.70417 18.7619 4.89399 19.2183C5.08382 19.6747 5.362 20.089 5.71254 20.4375C6.42431 21.1303 7.38185 21.5124 8.37504 21.5C9.37698 21.501 10.3386 21.1055 11.05 20.4L10.1625 19.5125C9.93025 19.7459 9.65413 19.9311 9.35006 20.0575C9.04599 20.1838 8.71995 20.2489 8.39067 20.2489C8.06138 20.2489 7.73534 20.1838 7.43127 20.0575C7.1272 19.9311 6.85109 19.7459 6.61879 19.5125Z"/>
<rect x="7.75" y="8.01752" width="1.25" height="18.2354" transform="rotate(-45.5623 7.75 8.01752)"/>
</svg>
