<svg width="17" height="17" viewBox="0 0 17 17" fill="none" xmlns="http://www.w3.org/2000/svg">
<g clip-path="url(#clip0)">
<path d="M12.8922 9.47955C12.7237 9.47955 12.5341 9.41636 12.4077 9.2689C12.1339 8.99504 12.1339 8.57373 12.4077 8.29988L14.8724 5.83519C15.3569 5.35068 15.6308 4.67658 15.6308 3.98141C15.6308 3.28625 15.3569 2.61214 14.8724 2.12763C14.3879 1.64312 13.7138 1.36927 13.0186 1.36927C12.3235 1.36927 11.6494 1.64312 11.1649 2.12763L8.70017 4.59232C8.42631 4.86617 8.005 4.86617 7.73115 4.59232C7.45729 4.31846 7.45729 3.89715 7.73115 3.6233L10.1958 1.15861C10.9542 0.421314 11.9443 0 13.0186 0C14.093 0 15.0831 0.421314 15.8414 1.15861C16.5998 1.91698 17 2.90706 17 3.98141C17 5.05576 16.5787 6.04585 15.8414 6.80421L13.3768 9.2689C13.2504 9.39529 13.0608 9.47955 12.8922 9.47955Z" fill="#636363"/>
<path d="M3.98141 16.9999C2.94919 16.9999 1.93804 16.6207 1.15861 15.8413C0.421313 15.0829 0 14.0929 0 13.0185C0 11.9442 0.421313 10.9541 1.15861 10.1957L3.6233 7.73103C3.89715 7.45717 4.31846 7.45717 4.59232 7.73103C4.86617 8.00488 4.86617 8.42619 4.59232 8.70005L2.12763 11.1647C1.64312 11.6492 1.36927 12.3233 1.36927 13.0185C1.36927 13.7137 1.64312 14.3878 2.12763 14.8723C3.15985 15.9045 4.82404 15.9045 5.83519 14.8723L8.29987 12.4076C8.57373 12.1337 8.99504 12.1337 9.26889 12.4076C9.54275 12.6815 9.54275 13.1028 9.26889 13.3766L6.80421 15.8413C6.02478 16.6207 5.01363 16.9999 3.98141 16.9999Z" fill="#636363"/>
<path d="M13.2293 13.9244C13.0607 13.9244 12.8711 13.8612 12.7448 13.7138L3.2652 4.23423C2.99135 3.96037 2.99135 3.53906 3.2652 3.2652C3.53906 2.99135 3.96037 2.99135 4.23423 3.2652L13.7138 12.7448C13.9876 13.0186 13.9876 13.4399 13.7138 13.7138C13.5874 13.8612 13.4189 13.9244 13.2293 13.9244Z" fill="#636363"/>
</g>
<defs>
<clipPath id="clip0">
<rect width="17" height="17" fill="white"/>
</clipPath>
</defs>
</svg>
